<?xml version="1.0" encoding="iso-8859-1"?>
<!-- Generator: Adobe Illustrator 18.1.1, SVG Export Plug-In . SVG Version: 6.00 Build 0)  -->
<svg xmlns="http://www.w3.org/2000/svg" xmlns:xlink="http://www.w3.org/1999/xlink" version="1.1" id="Capa_1" x="0px" y="0px" viewBox="0 0 31.683 31.683" style="enable-background:new 0 0 31.683 31.683;" xml:space="preserve" width="512px" height="512px">
<g>
	<path d="M21.498,25.67H7.012V3.893h14.486v4.691h1.729V2.308C23.226,1.034,22.193,0,20.922,0H7.59C6.314,0,5.283,1.034,5.283,2.308   v27.069c0,1.273,1.031,2.306,2.307,2.306h13.332c1.271,0,2.305-1.033,2.305-2.306V19.212h-1.729V25.67z M19.4,1.444   c0.326,0,0.588,0.264,0.588,0.59s-0.262,0.59-0.588,0.59s-0.59-0.264-0.59-0.59S19.074,1.444,19.4,1.444z M11.164,1.667h6.182   v0.676h-6.182V1.667z M17.07,29.223h-5.631v-1.73h5.631C17.07,27.493,17.07,29.223,17.07,29.223z" fill="#FFFFFF"/>
	<path d="M13.051,9.305v8.991h1.555l-1.555,3.695l4.537-3.695H26.4V9.305H13.051z M25.263,17.157h-7.676h-0.406l-0.312,0.256   l-0.994,0.81l0.449-1.066h-1.719h-0.418v-6.712h11.076V17.157z" fill="#FFFFFF"/>
	<g>
	</g>
	<g>
	</g>
	<g>
	</g>
	<g>
	</g>
	<g>
	</g>
	<g>
	</g>
	<g>
	</g>
	<g>
	</g>
	<g>
	</g>
	<g>
	</g>
	<g>
	</g>
	<g>
	</g>
	<g>
	</g>
	<g>
	</g>
	<g>
	</g>
</g>
<g>
</g>
<g>
</g>
<g>
</g>
<g>
</g>
<g>
</g>
<g>
</g>
<g>
</g>
<g>
</g>
<g>
</g>
<g>
</g>
<g>
</g>
<g>
</g>
<g>
</g>
<g>
</g>
<g>
</g>
</svg>
